<svg width="40" height="40" viewBox="0 0 40 40" fill="none" xmlns="http://www.w3.org/2000/svg"><path d="M6.666 5.833h26.667v-2.5a.833.833 0 00-.834-.833h-25a.833.833 0 00-.833.833v2.5zm30 1.667H3.333a1.667 1.667 0 00-1.667 1.667v26.666A1.666 1.666 0 003.333 37.5h33.333a1.666 1.666 0 001.667-1.667V9.167A1.667 1.667 0 0036.666 7.5zm-23.333 5.833a2.5 2.5 0 110 5 2.5 2.5 0 010-5zM33.22 30.417a.835.835 0 01-.72.416H8.332a.834.834 0 01-.667-1.333l5-6.667a.833.833 0 011.256-.091l4.32 4.32 6.924-9.229a.835.835 0 011.39.084l6.667 11.666a.835.835 0 01-.003.834z" fill="#E4E5E7"/></svg>